<svg xmlns="http://www.w3.org/2000/svg" viewBox="0 0 1100 660" font-family="system-ui, -apple-system, sans-serif">
  <defs>
    <marker id="arrow" markerWidth="8" markerHeight="6" refX="8" refY="3" orient="auto">
      <path d="M0,0 L8,3 L0,6" fill="#6ba3d6" />
    </marker>
    <marker id="arrowR" markerWidth="8" markerHeight="6" refX="8" refY="3" orient="auto">
      <path d="M0,0 L8,3 L0,6" fill="#a88bff" />
    </marker>
  </defs>

  <rect width="1100" height="660" rx="16" fill="#0d1117" />

  <text x="550" y="36" text-anchor="middle" fill="#e6edf3" font-size="18" font-weight="bold">Lifeblood — Hexagonal Architecture</text>
  <text x="550" y="56" text-anchor="middle" fill="#8b949e" font-size="12">Solid = implemented. Dashed = planned. 594 symbols, 830 edges, 82 tests, CI green.</text>

  <!-- LEFT LABEL -->
  <text x="145" y="88" text-anchor="middle" fill="#6ba3d6" font-size="11" font-weight="bold" letter-spacing="1">LEFT SIDE</text>
  <text x="145" y="102" text-anchor="middle" fill="#8b949e" font-size="10">Language Adapters</text>

  <!-- LEFT: Implemented -->
  <rect x="30" y="118" width="230" height="48" rx="10" fill="#161b22" stroke="#30363d" stroke-width="1.5" />
  <text x="145" y="138" text-anchor="middle" fill="#e6edf3" font-size="12" font-weight="600">Roslyn / C#</text>
  <text x="145" y="155" text-anchor="middle" fill="#8b949e" font-size="10">Reference adapter. Proven confidence.</text>

  <rect x="30" y="176" width="230" height="48" rx="10" fill="#161b22" stroke="#30363d" stroke-width="1.5" />
  <text x="145" y="196" text-anchor="middle" fill="#e6edf3" font-size="12" font-weight="600">TypeScript</text>
  <text x="145" y="213" text-anchor="middle" fill="#8b949e" font-size="10">Standalone Node.js. High confidence.</text>

  <rect x="30" y="234" width="230" height="48" rx="10" fill="#161b22" stroke="#30363d" stroke-width="1.5" />
  <text x="145" y="254" text-anchor="middle" fill="#e6edf3" font-size="12" font-weight="600">JSON Graph Import</text>
  <text x="145" y="271" text-anchor="middle" fill="#8b949e" font-size="10">Universal protocol. Any language.</text>

  <!-- LEFT: Planned -->
  <rect x="30" y="298" width="230" height="38" rx="10" fill="#161b22" stroke="#30363d" stroke-width="1.5" stroke-dasharray="6 4" opacity="0.4" />
  <text x="145" y="322" text-anchor="middle" fill="#8b949e" font-size="11">Go / Python / Rust (planned)</text>

  <!-- LEFT PORTS -->
  <rect x="290" y="135" width="140" height="44" rx="8" fill="#1a2233" stroke="#6ba3d6" stroke-width="1.5" />
  <text x="360" y="153" text-anchor="middle" fill="#6ba3d6" font-size="10" font-weight="bold">IWorkspaceAnalyzer</text>
  <text x="360" y="168" text-anchor="middle" fill="#8b949e" font-size="9">project -&gt; graph</text>

  <rect x="290" y="197" width="140" height="44" rx="8" fill="#1a2233" stroke="#6ba3d6" stroke-width="1.5" />
  <text x="360" y="215" text-anchor="middle" fill="#6ba3d6" font-size="10" font-weight="bold">IGraphImporter</text>
  <text x="360" y="230" text-anchor="middle" fill="#8b949e" font-size="9">JSON -&gt; GraphDocument</text>

  <!-- HEXAGONAL CORE -->
  <polygon points="550,80 730,140 730,320 550,380 370,320 370,140" fill="#131d2e" stroke="#30363d" stroke-width="2" />
  <text x="550" y="114" text-anchor="middle" fill="#6ba3d6" font-size="10" font-weight="bold" letter-spacing="1">APPLICATION</text>
  <text x="460" y="168" text-anchor="middle" fill="#8b949e" font-size="9">Ports</text>
  <text x="640" y="168" text-anchor="middle" fill="#8b949e" font-size="9">Use Cases</text>

  <polygon points="550,150 650,185 650,275 550,310 450,275 450,185" fill="#0d1a2d" stroke="#6ba3d6" stroke-width="1.5" />
  <text x="550" y="200" text-anchor="middle" fill="#7bdcff" font-size="11" font-weight="bold">DOMAIN</text>
  <text x="550" y="218" text-anchor="middle" fill="#e6edf3" font-size="12" font-weight="600">Semantic Graph</text>
  <text x="550" y="236" text-anchor="middle" fill="#8b949e" font-size="9">Symbol  Edge  Evidence</text>
  <text x="550" y="252" text-anchor="middle" fill="#8b949e" font-size="9">GraphBuilder  GraphValidator</text>
  <text x="550" y="268" text-anchor="middle" fill="#8b949e" font-size="9">GraphDocument  Immutable</text>

  <!-- RIGHT PORTS -->
  <rect x="670" y="135" width="152" height="44" rx="8" fill="#1f1a33" stroke="#a88bff" stroke-width="1.5" />
  <text x="746" y="153" text-anchor="middle" fill="#a88bff" font-size="10" font-weight="bold">IAgentContextGenerator</text>
  <text x="746" y="168" text-anchor="middle" fill="#8b949e" font-size="9">graph -&gt; context pack</text>

  <rect x="670" y="197" width="152" height="44" rx="8" fill="#1f1a33" stroke="#a88bff" stroke-width="1.5" />
  <text x="746" y="215" text-anchor="middle" fill="#a88bff" font-size="10" font-weight="bold">IMcpGraphProvider</text>
  <text x="746" y="230" text-anchor="middle" fill="#8b949e" font-size="9">queries + blast radius</text>

  <!-- RIGHT LABEL -->
  <text x="955" y="88" text-anchor="middle" fill="#a88bff" font-size="11" font-weight="bold" letter-spacing="1">RIGHT SIDE</text>
  <text x="955" y="102" text-anchor="middle" fill="#8b949e" font-size="10">AI Connectors</text>

  <!-- RIGHT: Implemented -->
  <rect x="840" y="118" width="230" height="48" rx="10" fill="#161b22" stroke="#30363d" stroke-width="1.5" />
  <text x="955" y="138" text-anchor="middle" fill="#e6edf3" font-size="12" font-weight="600">AgentContextGenerator</text>
  <text x="955" y="155" text-anchor="middle" fill="#8b949e" font-size="10">Structured JSON context pack</text>

  <rect x="840" y="176" width="230" height="48" rx="10" fill="#161b22" stroke="#30363d" stroke-width="1.5" />
  <text x="955" y="196" text-anchor="middle" fill="#e6edf3" font-size="12" font-weight="600">InstructionFileGenerator</text>
  <text x="955" y="213" text-anchor="middle" fill="#8b949e" font-size="10">CLAUDE.md / AGENTS.md sections</text>

  <rect x="840" y="234" width="230" height="48" rx="10" fill="#161b22" stroke="#30363d" stroke-width="1.5" />
  <text x="955" y="254" text-anchor="middle" fill="#e6edf3" font-size="12" font-weight="600">MCP Server (stdio)</text>
  <text x="955" y="271" text-anchor="middle" fill="#8b949e" font-size="10">6 tools. JSON-RPC 2.0.</text>

  <rect x="840" y="292" width="230" height="48" rx="10" fill="#161b22" stroke="#30363d" stroke-width="1.5" />
  <text x="955" y="312" text-anchor="middle" fill="#e6edf3" font-size="12" font-weight="600">LifebloodMcpProvider</text>
  <text x="955" y="329" text-anchor="middle" fill="#8b949e" font-size="10">Lookup, deps, blast radius</text>

  <!-- RIGHT: Planned -->
  <rect x="840" y="356" width="230" height="38" rx="10" fill="#161b22" stroke="#30363d" stroke-width="1.5" stroke-dasharray="6 4" opacity="0.4" />
  <text x="955" y="380" text-anchor="middle" fill="#8b949e" font-size="11">REST / LSP Bridge (planned)</text>

  <!-- WIRES -->
  <line x1="260" y1="155" x2="288" y2="155" stroke="#6ba3d6" stroke-width="2" marker-end="url(#arrow)" />
  <line x1="260" y1="215" x2="288" y2="215" stroke="#6ba3d6" stroke-width="2" marker-end="url(#arrow)" />
  <line x1="430" y1="157" x2="450" y2="175" stroke="#6ba3d6" stroke-width="1.5" marker-end="url(#arrow)" />
  <line x1="430" y1="219" x2="450" y2="215" stroke="#6ba3d6" stroke-width="1.5" marker-end="url(#arrow)" />
  <line x1="650" y1="175" x2="668" y2="157" stroke="#a88bff" stroke-width="1.5" marker-end="url(#arrowR)" />
  <line x1="650" y1="215" x2="668" y2="219" stroke="#a88bff" stroke-width="1.5" marker-end="url(#arrowR)" />
  <line x1="822" y1="155" x2="838" y2="155" stroke="#a88bff" stroke-width="2" marker-end="url(#arrowR)" />
  <line x1="822" y1="215" x2="838" y2="215" stroke="#a88bff" stroke-width="2" marker-end="url(#arrowR)" />
  <line x1="822" y1="215" x2="838" y2="260" stroke="#a88bff" stroke-width="1.5" marker-end="url(#arrowR)" />
  <line x1="822" y1="215" x2="838" y2="312" stroke="#a88bff" stroke-width="1.5" marker-end="url(#arrowR)" />

  <!-- ANALYSIS -->
  <rect x="370" y="410" width="360" height="58" rx="10" fill="#161b22" stroke="#30363d" stroke-width="1.5" />
  <text x="550" y="432" text-anchor="middle" fill="#8cf0b5" font-size="11" font-weight="bold">Lifeblood.Analysis</text>
  <text x="550" y="448" text-anchor="middle" fill="#8b949e" font-size="10">CouplingAnalyzer  BlastRadiusAnalyzer  CircularDependencyDetector</text>
  <text x="550" y="460" text-anchor="middle" fill="#8b949e" font-size="10">TierClassifier  RuleValidator</text>
  <line x1="550" y1="380" x2="550" y2="408" stroke="#8cf0b5" stroke-width="1.5" marker-end="url(#arrow)" />

  <!-- CLI -->
  <rect x="370" y="490" width="360" height="48" rx="10" fill="#161b22" stroke="#ffd37b" stroke-width="1.5" />
  <text x="550" y="510" text-anchor="middle" fill="#ffd37b" font-size="11" font-weight="bold">Lifeblood.CLI + Server.Mcp</text>
  <text x="550" y="528" text-anchor="middle" fill="#8b949e" font-size="10">analyze | context | export | 6 MCP tools over stdio</text>

  <!-- INVARIANTS -->
  <rect x="130" y="570" width="840" height="70" rx="10" fill="#0d1117" stroke="#30363d" stroke-width="1" />
  <text x="550" y="592" text-anchor="middle" fill="#e6edf3" font-size="11" font-weight="600">Enforced Invariants</text>
  <text x="550" y="610" text-anchor="middle" fill="#8b949e" font-size="10">Domain: zero deps  |  Adapters never ref adapters  |  Connectors never ref adapters  |  Graph immutable</text>
  <text x="550" y="626" text-anchor="middle" fill="#8b949e" font-size="10">Output deterministic  |  11 frozen ADRs  |  82 tests  |  3 CI jobs (build + TS adapter + dogfood)</text>
</svg>
